# xmcd CD database file
#
# Track frame offsets:
#	150
#	19618
#	35529
#	49871
#	59381
#	75472
#	87152
#	97983
#	108409
#	119842
#	134523
#	146350
#	156298
#	167479
#	183849
#	193150
#	203191
#	217932
#	229016
#	237675
#	248030
#
# Disc length: 3514 seconds
#
# Revision: 0
# Processed by: cddbd v1.5.1PL2 Copyright (c) Steve Scherf et al.
# Submitted via: CDex 1.51
#
DISCID=210db815
DTITLE=Sinikithemba Choir, Imilonji KaNtu, and Tim Janis - A Thousand Summers--Special Aids in Africa Benefit Edition
DYEAR=2002
DGENRE=Christian
TTITLE0=Lord Give Me Hope
TTITLE1=Yes Lord
TTITLE2=Nkosi Baba
TTITLE3=Morro Bay
TTITLE4=A Thousand Summers
TTITLE5=For Only a Moment
TTITLE6=Cape Ann
TTITLE7=Star Island (piano reprise)
TTITLE8=Oak Bluffs
TTITLE9=Grand Lake
TTITLE10=September (piano reprise)
TTITLE11=Alton Bay
TTITLE12=Once In Time
TTITLE13=Wildwood Crest
TTITLE14=Ocean Isle
TTITLE15=For You Alone (piano reprise)
TTITLE16=Lighthouse Point
TTITLE17=Count the Years
TTITLE18=I Don't Mind
TTITLE19=Thina Sogiya
TTITLE20=Holy Father
EXTD=YEAR: 2002
EXTT0=
EXTT1=
EXTT2=
EXTT3=
EXTT4=
EXTT5=
EXTT6=
EXTT7=
EXTT8=
EXTT9=
EXTT10=
EXTT11=
EXTT12=
EXTT13=
EXTT14=
EXTT15=
EXTT16=
EXTT17=
EXTT18=
EXTT19=
EXTT20=
PLAYORDER=
